<svg width="393" height="45" viewBox="0 0 393 45" fill="none" xmlns="http://www.w3.org/2000/svg">
<path d="M21.192 30.672V36H0.864014V1.29599H7.32001V30.672H21.192Z" fill="#141414"/>
<path d="M45.0503 11.376V36H41.4263C40.6423 36 40.1463 35.64 39.9383 34.92L39.5303 32.952C38.5223 33.976 37.4103 34.808 36.1943 35.448C34.9783 36.072 33.5463 36.384 31.8983 36.384C30.5543 36.384 29.3623 36.16 28.3223 35.712C27.2983 35.248 26.4343 34.6 25.7303 33.768C25.0263 32.936 24.4903 31.952 24.1223 30.816C23.7703 29.664 23.5943 28.4 23.5943 27.024V11.376H29.5223V27.024C29.5223 28.528 29.8663 29.696 30.5543 30.528C31.2583 31.344 32.3063 31.752 33.6983 31.752C34.7223 31.752 35.6823 31.528 36.5783 31.08C37.4743 30.616 38.3223 29.984 39.1223 29.184V11.376H45.0503Z" fill="#141414"/>
<path d="M57.072 11.376V36H51.12V11.376H57.072ZM57.888 4.19999C57.888 4.71199 57.784 5.19199 57.576 5.63999C57.368 6.08799 57.088 6.47999 56.736 6.81599C56.4 7.15199 56 7.42399 55.536 7.63199C55.072 7.82399 54.576 7.91999 54.048 7.91999C53.536 7.91999 53.048 7.82399 52.584 7.63199C52.136 7.42399 51.744 7.15199 51.408 6.81599C51.072 6.47999 50.8 6.08799 50.592 5.63999C50.4 5.19199 50.304 4.71199 50.304 4.19999C50.304 3.67199 50.4 3.17599 50.592 2.71199C50.8 2.24799 51.072 1.84799 51.408 1.51199C51.744 1.17599 52.136 0.911989 52.584 0.71999C53.048 0.51199 53.536 0.40799 54.048 0.40799C54.576 0.40799 55.072 0.51199 55.536 0.71999C56 0.911989 56.4 1.17599 56.736 1.51199C57.088 1.84799 57.368 2.24799 57.576 2.71199C57.784 3.17599 57.888 3.67199 57.888 4.19999Z" fill="#141414"/>
<path d="M80.8035 13.824C80.8035 14.24 80.7315 14.648 80.5875 15.048C80.4435 15.448 80.2515 15.776 80.0115 16.032L68.3235 31.44H80.4435V36H61.4355V33.528C61.4355 33.256 61.4995 32.936 61.6275 32.568C61.7555 32.184 61.9475 31.824 62.2035 31.488L74.0115 15.912H62.1315V11.376H80.8035V13.824Z" fill="#141414"/>
<path d="M127.058 1.29599V36H120.578V20.832H104.282V36H97.8015V1.29599H104.282V16.224H120.578V1.29599H127.058Z" fill="#141414"/>
<path d="M148.964 20.856C148.964 20.088 148.852 19.368 148.628 18.696C148.42 18.008 148.1 17.408 147.668 16.896C147.236 16.384 146.684 15.984 146.012 15.696C145.356 15.392 144.588 15.24 143.708 15.24C141.996 15.24 140.644 15.728 139.652 16.704C138.676 17.68 138.052 19.064 137.78 20.856H148.964ZM137.66 24.432C137.756 25.696 137.98 26.792 138.332 27.72C138.684 28.632 139.148 29.392 139.724 30C140.3 30.592 140.98 31.04 141.764 31.344C142.564 31.632 143.444 31.776 144.404 31.776C145.364 31.776 146.188 31.664 146.876 31.44C147.58 31.216 148.188 30.968 148.7 30.696C149.228 30.424 149.684 30.176 150.068 29.952C150.468 29.728 150.852 29.616 151.22 29.616C151.716 29.616 152.084 29.8 152.324 30.168L154.028 32.328C153.372 33.096 152.636 33.744 151.82 34.272C151.004 34.784 150.148 35.2 149.252 35.52C148.372 35.824 147.468 36.04 146.54 36.168C145.628 36.296 144.74 36.36 143.876 36.36C142.164 36.36 140.572 36.08 139.1 35.52C137.628 34.944 136.348 34.104 135.26 33C134.172 31.88 133.316 30.504 132.692 28.872C132.068 27.224 131.756 25.32 131.756 23.16C131.756 21.48 132.028 19.904 132.572 18.432C133.116 16.944 133.892 15.656 134.9 14.568C135.924 13.464 137.164 12.592 138.62 11.952C140.092 11.312 141.748 10.992 143.588 10.992C145.14 10.992 146.572 11.24 147.884 11.736C149.196 12.232 150.324 12.96 151.268 13.92C152.212 14.864 152.948 16.032 153.476 17.424C154.02 18.8 154.292 20.376 154.292 22.152C154.292 23.048 154.196 23.656 154.004 23.976C153.812 24.28 153.444 24.432 152.9 24.432H137.66Z" fill="#141414"/>
<path d="M164.285 14.4C164.781 13.904 165.301 13.448 165.845 13.032C166.405 12.6 166.989 12.24 167.597 11.952C168.221 11.648 168.885 11.416 169.589 11.256C170.293 11.08 171.061 10.992 171.893 10.992C173.237 10.992 174.429 11.224 175.469 11.688C176.509 12.136 177.373 12.776 178.061 13.608C178.765 14.424 179.293 15.408 179.645 16.56C180.013 17.696 180.197 18.952 180.197 20.328V36H174.269V20.328C174.269 18.824 173.925 17.664 173.237 16.848C172.549 16.016 171.501 15.6 170.093 15.6C169.069 15.6 168.109 15.832 167.213 16.296C166.317 16.76 165.469 17.392 164.669 18.192V36H158.741V11.376H162.365C163.133 11.376 163.637 11.736 163.877 12.456L164.285 14.4Z" fill="#141414"/>
<path d="M191.426 15.648C192.194 14.176 193.106 13.024 194.162 12.192C195.218 11.344 196.466 10.92 197.906 10.92C199.042 10.92 199.954 11.168 200.642 11.664L200.258 16.104C200.178 16.392 200.058 16.6 199.898 16.728C199.754 16.84 199.554 16.896 199.298 16.896C199.058 16.896 198.698 16.856 198.218 16.776C197.754 16.696 197.298 16.656 196.85 16.656C196.194 16.656 195.61 16.752 195.098 16.944C194.586 17.136 194.122 17.416 193.706 17.784C193.306 18.136 192.946 18.568 192.626 19.08C192.322 19.592 192.034 20.176 191.762 20.832V36H185.834V11.376H189.314C189.922 11.376 190.346 11.488 190.586 11.712C190.826 11.92 190.986 12.304 191.066 12.864L191.426 15.648Z" fill="#141414"/>
<path d="M209.885 11.376V36H203.933V11.376H209.885ZM210.701 4.19999C210.701 4.71199 210.597 5.19199 210.389 5.63999C210.181 6.08799 209.901 6.47999 209.549 6.81599C209.213 7.15199 208.813 7.42399 208.349 7.63199C207.885 7.82399 207.389 7.91999 206.861 7.91999C206.349 7.91999 205.861 7.82399 205.397 7.63199C204.949 7.42399 204.557 7.15199 204.221 6.81599C203.885 6.47999 203.613 6.08799 203.405 5.63999C203.213 5.19199 203.117 4.71199 203.117 4.19999C203.117 3.67199 203.213 3.17599 203.405 2.71199C203.613 2.24799 203.885 1.84799 204.221 1.51199C204.557 1.17599 204.949 0.911989 205.397 0.71999C205.861 0.51199 206.349 0.40799 206.861 0.40799C207.389 0.40799 207.885 0.51199 208.349 0.71999C208.813 0.911989 209.213 1.17599 209.549 1.51199C209.901 1.84799 210.181 2.24799 210.389 2.71199C210.597 3.17599 210.701 3.67199 210.701 4.19999Z" fill="#141414"/>
<path d="M231.384 17.664C230.728 16.848 230 16.272 229.2 15.936C228.4 15.6 227.544 15.432 226.632 15.432C225.736 15.432 224.928 15.6 224.208 15.936C223.488 16.272 222.872 16.784 222.36 17.472C221.848 18.144 221.456 19.008 221.184 20.064C220.912 21.104 220.776 22.336 220.776 23.76C220.776 25.2 220.888 26.424 221.112 27.432C221.352 28.424 221.688 29.24 222.12 29.88C222.552 30.504 223.08 30.96 223.704 31.248C224.328 31.52 225.024 31.656 225.792 31.656C227.024 31.656 228.072 31.4 228.936 30.888C229.8 30.376 230.616 29.648 231.384 28.704V17.664ZM237.312 11.376V44.04H231.384V32.88C230.408 33.92 229.304 34.76 228.072 35.4C226.84 36.04 225.408 36.36 223.776 36.36C222.432 36.36 221.2 36.08 220.08 35.52C218.96 34.96 217.992 34.152 217.176 33.096C216.376 32.024 215.752 30.704 215.304 29.136C214.872 27.568 214.656 25.776 214.656 23.76C214.656 21.936 214.904 20.24 215.4 18.672C215.896 17.104 216.608 15.744 217.536 14.592C218.464 13.44 219.576 12.544 220.872 11.904C222.168 11.248 223.624 10.92 225.24 10.92C226.776 10.92 228.064 11.184 229.104 11.712C230.144 12.24 231.072 12.952 231.888 13.848L232.2 12.456C232.408 11.736 232.904 11.376 233.688 11.376H237.312Z" fill="#141414"/>
<path d="M264.378 11.376V36H260.754C259.97 36 259.474 35.64 259.266 34.92L258.858 32.952C257.85 33.976 256.738 34.808 255.522 35.448C254.306 36.072 252.874 36.384 251.226 36.384C249.882 36.384 248.69 36.16 247.65 35.712C246.626 35.248 245.762 34.6 245.058 33.768C244.354 32.936 243.818 31.952 243.45 30.816C243.098 29.664 242.922 28.4 242.922 27.024V11.376H248.85V27.024C248.85 28.528 249.194 29.696 249.882 30.528C250.586 31.344 251.634 31.752 253.026 31.752C254.05 31.752 255.01 31.528 255.906 31.08C256.802 30.616 257.65 29.984 258.45 29.184V11.376H264.378Z" fill="#141414"/>
<path d="M286.12 20.856C286.12 20.088 286.008 19.368 285.784 18.696C285.576 18.008 285.256 17.408 284.824 16.896C284.392 16.384 283.84 15.984 283.168 15.696C282.512 15.392 281.744 15.24 280.864 15.24C279.152 15.24 277.8 15.728 276.808 16.704C275.832 17.68 275.208 19.064 274.936 20.856H286.12ZM274.816 24.432C274.912 25.696 275.136 26.792 275.488 27.72C275.84 28.632 276.304 29.392 276.88 30C277.456 30.592 278.136 31.04 278.92 31.344C279.72 31.632 280.6 31.776 281.56 31.776C282.52 31.776 283.344 31.664 284.032 31.44C284.736 31.216 285.344 30.968 285.856 30.696C286.384 30.424 286.84 30.176 287.224 29.952C287.624 29.728 288.008 29.616 288.376 29.616C288.872 29.616 289.24 29.8 289.48 30.168L291.184 32.328C290.528 33.096 289.792 33.744 288.976 34.272C288.16 34.784 287.304 35.2 286.408 35.52C285.528 35.824 284.624 36.04 283.696 36.168C282.784 36.296 281.896 36.36 281.032 36.36C279.32 36.36 277.728 36.08 276.256 35.52C274.784 34.944 273.504 34.104 272.416 33C271.328 31.88 270.472 30.504 269.848 28.872C269.224 27.224 268.912 25.32 268.912 23.16C268.912 21.48 269.184 19.904 269.728 18.432C270.272 16.944 271.048 15.656 272.056 14.568C273.08 13.464 274.32 12.592 275.776 11.952C277.248 11.312 278.904 10.992 280.744 10.992C282.296 10.992 283.728 11.24 285.04 11.736C286.352 12.232 287.48 12.96 288.424 13.92C289.368 14.864 290.104 16.032 290.632 17.424C291.176 18.8 291.448 20.376 291.448 22.152C291.448 23.048 291.352 23.656 291.16 23.976C290.968 24.28 290.6 24.432 290.056 24.432H274.816Z" fill="#141414"/>
<path d="M326.985 7.60799C326.793 7.94399 326.585 8.19199 326.361 8.35199C326.153 8.49599 325.889 8.56799 325.569 8.56799C325.233 8.56799 324.865 8.44799 324.465 8.20799C324.081 7.95199 323.617 7.67199 323.073 7.36799C322.529 7.06399 321.889 6.79199 321.153 6.55199C320.433 6.29599 319.577 6.16799 318.585 6.16799C317.689 6.16799 316.905 6.27999 316.233 6.50399C315.561 6.71199 314.993 7.00799 314.529 7.39199C314.081 7.77599 313.745 8.23999 313.521 8.78399C313.297 9.31199 313.185 9.89599 313.185 10.536C313.185 11.352 313.409 12.032 313.857 12.576C314.321 13.12 314.929 13.584 315.681 13.968C316.433 14.352 317.289 14.696 318.249 15C319.209 15.304 320.193 15.632 321.201 15.984C322.209 16.32 323.193 16.72 324.153 17.184C325.113 17.632 325.969 18.208 326.721 18.912C327.473 19.6 328.073 20.448 328.521 21.456C328.985 22.464 329.217 23.688 329.217 25.128C329.217 26.696 328.945 28.168 328.401 29.544C327.873 30.904 327.089 32.096 326.049 33.12C325.025 34.128 323.769 34.928 322.281 35.52C320.793 36.096 319.089 36.384 317.169 36.384C316.065 36.384 314.977 36.272 313.905 36.048C312.833 35.84 311.801 35.536 310.809 35.136C309.833 34.736 308.913 34.256 308.049 33.696C307.185 33.136 306.417 32.512 305.745 31.824L307.641 28.728C307.801 28.504 308.009 28.32 308.265 28.176C308.521 28.016 308.793 27.936 309.081 27.936C309.481 27.936 309.913 28.104 310.377 28.44C310.841 28.76 311.393 29.12 312.033 29.52C312.673 29.92 313.417 30.288 314.265 30.624C315.129 30.944 316.161 31.104 317.361 31.104C319.201 31.104 320.625 30.672 321.633 29.808C322.641 28.928 323.145 27.672 323.145 26.04C323.145 25.128 322.913 24.384 322.449 23.808C322.001 23.232 321.401 22.752 320.649 22.368C319.897 21.968 319.041 21.632 318.081 21.36C317.121 21.088 316.145 20.792 315.153 20.472C314.161 20.152 313.185 19.768 312.225 19.32C311.265 18.872 310.409 18.288 309.657 17.568C308.905 16.848 308.297 15.952 307.833 14.88C307.385 13.792 307.161 12.456 307.161 10.872C307.161 9.60799 307.409 8.37599 307.905 7.17599C308.417 5.97599 309.153 4.91199 310.113 3.98399C311.073 3.05599 312.257 2.31199 313.665 1.75199C315.073 1.19199 316.689 0.91199 318.513 0.91199C320.561 0.91199 322.449 1.23199 324.177 1.87199C325.905 2.51199 327.377 3.40799 328.593 4.55999L326.985 7.60799Z" fill="#141414"/>
<path d="M346.592 25.488C344.88 25.568 343.44 25.72 342.272 25.944C341.104 26.152 340.168 26.424 339.464 26.76C338.76 27.096 338.256 27.488 337.952 27.936C337.648 28.384 337.496 28.872 337.496 29.4C337.496 30.44 337.8 31.184 338.408 31.632C339.032 32.08 339.84 32.304 340.832 32.304C342.048 32.304 343.096 32.088 343.976 31.656C344.872 31.208 345.744 30.536 346.592 29.64V25.488ZM333.008 14.808C335.84 12.216 339.248 10.92 343.232 10.92C344.672 10.92 345.96 11.16 347.096 11.64C348.232 12.104 349.192 12.76 349.976 13.608C350.76 14.44 351.352 15.44 351.752 16.608C352.168 17.776 352.376 19.056 352.376 20.448V36H349.688C349.128 36 348.696 35.92 348.392 35.76C348.088 35.584 347.848 35.24 347.672 34.728L347.144 32.952C346.52 33.512 345.912 34.008 345.32 34.44C344.728 34.856 344.112 35.208 343.472 35.496C342.832 35.784 342.144 36 341.408 36.144C340.688 36.304 339.888 36.384 339.008 36.384C337.968 36.384 337.008 36.248 336.128 35.976C335.248 35.688 334.488 35.264 333.848 34.704C333.208 34.144 332.712 33.448 332.36 32.616C332.008 31.784 331.832 30.816 331.832 29.712C331.832 29.088 331.936 28.472 332.144 27.864C332.352 27.24 332.688 26.648 333.152 26.088C333.632 25.528 334.248 25 335 24.504C335.752 24.008 336.672 23.576 337.76 23.208C338.864 22.84 340.144 22.544 341.6 22.32C343.056 22.08 344.72 21.936 346.592 21.888V20.448C346.592 18.8 346.24 17.584 345.536 16.8C344.832 16 343.816 15.6 342.488 15.6C341.528 15.6 340.728 15.712 340.088 15.936C339.464 16.16 338.912 16.416 338.432 16.704C337.952 16.976 337.512 17.224 337.112 17.448C336.728 17.672 336.296 17.784 335.816 17.784C335.4 17.784 335.048 17.68 334.76 17.472C334.472 17.248 334.24 16.992 334.064 16.704L333.008 14.808Z" fill="#141414"/>
<path d="M363.503 14.4C363.999 13.904 364.519 13.448 365.063 13.032C365.623 12.6 366.207 12.24 366.815 11.952C367.439 11.648 368.103 11.416 368.807 11.256C369.511 11.08 370.279 10.992 371.111 10.992C372.455 10.992 373.647 11.224 374.687 11.688C375.727 12.136 376.591 12.776 377.279 13.608C377.983 14.424 378.511 15.408 378.863 16.56C379.231 17.696 379.415 18.952 379.415 20.328V36H373.487V20.328C373.487 18.824 373.143 17.664 372.455 16.848C371.767 16.016 370.719 15.6 369.311 15.6C368.287 15.6 367.327 15.832 366.431 16.296C365.535 16.76 364.687 17.392 363.887 18.192V36H357.959V11.376H361.583C362.351 11.376 362.855 11.736 363.095 12.456L363.503 14.4Z" fill="#141414"/>
<path d="M391.197 11.376V36H385.245V11.376H391.197ZM392.013 4.19999C392.013 4.71199 391.909 5.19199 391.701 5.63999C391.493 6.08799 391.213 6.47999 390.861 6.81599C390.525 7.15199 390.125 7.42399 389.661 7.63199C389.197 7.82399 388.701 7.91999 388.173 7.91999C387.661 7.91999 387.173 7.82399 386.709 7.63199C386.261 7.42399 385.869 7.15199 385.533 6.81599C385.197 6.47999 384.925 6.08799 384.717 5.63999C384.525 5.19199 384.429 4.71199 384.429 4.19999C384.429 3.67199 384.525 3.17599 384.717 2.71199C384.925 2.24799 385.197 1.84799 385.533 1.51199C385.869 1.17599 386.261 0.911989 386.709 0.71999C387.173 0.51199 387.661 0.40799 388.173 0.40799C388.701 0.40799 389.197 0.51199 389.661 0.71999C390.125 0.911989 390.525 1.17599 390.861 1.51199C391.213 1.84799 391.493 2.24799 391.701 2.71199C391.909 3.17599 392.013 3.67199 392.013 4.19999Z" fill="#141414"/>
</svg>
